<mxfile host="65bd71144e">
    <diagram name="Pagina-1" id="xzlasXtwS9tDgBcQnAEd">
        <mxGraphModel dx="1320" dy="464" grid="1" gridSize="10" guides="1" tooltips="1" connect="1" arrows="1" fold="1" page="1" pageScale="1" pageWidth="827" pageHeight="1169" math="0" shadow="0">
            <root>
                <mxCell id="0"/>
                <mxCell id="1" parent="0"/>
                <mxCell id="nuWsxtLAnOdjGiexu5wx-46" value="" style="group" parent="1" vertex="1" connectable="0">
                    <mxGeometry x="140" y="20" width="1160" height="730" as="geometry"/>
                </mxCell>
                <mxCell id="F0SvgqK3PkyoFHp2l92A-51" value="" style="group" parent="nuWsxtLAnOdjGiexu5wx-46" vertex="1" connectable="0">
                    <mxGeometry x="75" y="40" width="154.36" height="80" as="geometry"/>
                </mxCell>
                <mxCell id="F0SvgqK3PkyoFHp2l92A-35" value="Consumer" style="rounded=1;whiteSpace=wrap;html=1;fontFamily=Times New Roman;fontSize=18;" parent="F0SvgqK3PkyoFHp2l92A-51" vertex="1">
                    <mxGeometry y="20" width="120" height="60" as="geometry"/>
                </mxCell>
                <mxCell id="F0SvgqK3PkyoFHp2l92A-48" value="" style="shape=image;html=1;verticalLabelPosition=bottom;verticalAlign=top;imageAspect=0;image=https://1000logos.net/wp-content/uploads/2021/11/Docker-Logo-2013.png;clipPath=inset(0% 17.33% 31.07% 15.33%);aspect=fixed;" parent="F0SvgqK3PkyoFHp2l92A-51" vertex="1">
                    <mxGeometry x="85" width="69.36" height="40" as="geometry"/>
                </mxCell>
                <mxCell id="F0SvgqK3PkyoFHp2l92A-54" value="" style="group" parent="nuWsxtLAnOdjGiexu5wx-46" vertex="1" connectable="0">
                    <mxGeometry x="330" y="150" width="82.01999999999998" height="67.5" as="geometry"/>
                </mxCell>
                <mxCell id="F0SvgqK3PkyoFHp2l92A-53" value="" style="shape=image;html=1;verticalLabelPosition=bottom;verticalAlign=top;imageAspect=0;image=https://flink.apache.org/img/logo/png/1000/flink_squirrel_1000.png;" parent="F0SvgqK3PkyoFHp2l92A-54" vertex="1">
                    <mxGeometry y="10" width="60" height="57.5" as="geometry"/>
                </mxCell>
                <mxCell id="F0SvgqK3PkyoFHp2l92A-50" value="" style="shape=image;html=1;verticalLabelPosition=bottom;verticalAlign=top;imageAspect=0;image=https://1000logos.net/wp-content/uploads/2021/11/Docker-Logo-2013.png;clipPath=inset(0% 17.33% 31.07% 15.33%);aspect=fixed;" parent="F0SvgqK3PkyoFHp2l92A-54" vertex="1">
                    <mxGeometry x="30" width="52.02" height="30" as="geometry"/>
                </mxCell>
                <mxCell id="F0SvgqK3PkyoFHp2l92A-55" value="" style="group" parent="nuWsxtLAnOdjGiexu5wx-46" vertex="1" connectable="0">
                    <mxGeometry x="510" y="150" width="82.01999999999998" height="67.5" as="geometry"/>
                </mxCell>
                <mxCell id="F0SvgqK3PkyoFHp2l92A-56" value="" style="shape=image;html=1;verticalLabelPosition=bottom;verticalAlign=top;imageAspect=0;image=https://flink.apache.org/img/logo/png/1000/flink_squirrel_1000.png;" parent="F0SvgqK3PkyoFHp2l92A-55" vertex="1">
                    <mxGeometry y="10" width="60" height="57.5" as="geometry"/>
                </mxCell>
                <mxCell id="F0SvgqK3PkyoFHp2l92A-57" value="" style="shape=image;html=1;verticalLabelPosition=bottom;verticalAlign=top;imageAspect=0;image=https://1000logos.net/wp-content/uploads/2021/11/Docker-Logo-2013.png;clipPath=inset(0% 17.33% 31.07% 15.33%);aspect=fixed;" parent="F0SvgqK3PkyoFHp2l92A-55" vertex="1">
                    <mxGeometry x="30" width="52.02" height="30" as="geometry"/>
                </mxCell>
                <mxCell id="F0SvgqK3PkyoFHp2l92A-66" value="" style="group" parent="nuWsxtLAnOdjGiexu5wx-46" vertex="1" connectable="0">
                    <mxGeometry x="650" y="290" width="159.36" height="142.51" as="geometry"/>
                </mxCell>
                <mxCell id="F0SvgqK3PkyoFHp2l92A-38" value="" style="shape=image;html=1;verticalLabelPosition=bottom;verticalAlign=top;imageAspect=0;image=https://upload.wikimedia.org/wikipedia/commons/thumb/3/38/Prometheus_software_logo.svg/2066px-Prometheus_software_logo.svg.png;" parent="F0SvgqK3PkyoFHp2l92A-66" vertex="1">
                    <mxGeometry y="12.509999999999991" width="130" height="130" as="geometry"/>
                </mxCell>
                <mxCell id="F0SvgqK3PkyoFHp2l92A-65" value="" style="shape=image;html=1;verticalLabelPosition=bottom;verticalAlign=top;imageAspect=0;image=https://1000logos.net/wp-content/uploads/2021/11/Docker-Logo-2013.png;clipPath=inset(0% 17.33% 31.07% 15.33%);aspect=fixed;" parent="F0SvgqK3PkyoFHp2l92A-66" vertex="1">
                    <mxGeometry x="90" width="69.36" height="40" as="geometry"/>
                </mxCell>
                <mxCell id="F0SvgqK3PkyoFHp2l92A-67" value="" style="group" parent="nuWsxtLAnOdjGiexu5wx-46" vertex="1" connectable="0">
                    <mxGeometry x="65" y="290" width="144.36" height="145.63" as="geometry"/>
                </mxCell>
                <mxCell id="F0SvgqK3PkyoFHp2l92A-33" value="" style="shape=image;html=1;verticalLabelPosition=bottom;verticalAlign=top;imageAspect=0;image=https://cdn.icon-icons.com/icons2/2248/PNG/512/apache_kafka_icon_138937.png;" parent="F0SvgqK3PkyoFHp2l92A-67" vertex="1">
                    <mxGeometry y="6.8799999999999955" width="140" height="138.75" as="geometry"/>
                </mxCell>
                <mxCell id="F0SvgqK3PkyoFHp2l92A-49" value="" style="shape=image;html=1;verticalLabelPosition=bottom;verticalAlign=top;imageAspect=0;image=https://1000logos.net/wp-content/uploads/2021/11/Docker-Logo-2013.png;clipPath=inset(0% 17.33% 31.07% 15.33%);aspect=fixed;" parent="F0SvgqK3PkyoFHp2l92A-67" vertex="1">
                    <mxGeometry x="75" width="69.36" height="40" as="geometry"/>
                </mxCell>
                <mxCell id="jq3iloUvg6TluwMbq8WB-7" value="" style="shape=image;html=1;verticalLabelPosition=bottom;verticalAlign=top;imageAspect=0;image=https://www.freepnglogos.com/uploads/logo-website-png/logo-website-world-wide-web-svg-png-icon-download-10.png;" parent="nuWsxtLAnOdjGiexu5wx-46" vertex="1">
                    <mxGeometry x="448.52" y="600" width="111" height="110" as="geometry"/>
                </mxCell>
                <mxCell id="jq3iloUvg6TluwMbq8WB-10" style="edgeStyle=orthogonalEdgeStyle;rounded=0;orthogonalLoop=1;jettySize=auto;html=1;exitX=0.5;exitY=0;exitDx=0;exitDy=0;entryX=0.5;entryY=1;entryDx=0;entryDy=0;" parent="nuWsxtLAnOdjGiexu5wx-46" source="F0SvgqK3PkyoFHp2l92A-33" target="F0SvgqK3PkyoFHp2l92A-35" edge="1">
                    <mxGeometry relative="1" as="geometry"/>
                </mxCell>
                <mxCell id="jq3iloUvg6TluwMbq8WB-11" style="edgeStyle=orthogonalEdgeStyle;rounded=0;orthogonalLoop=1;jettySize=auto;html=1;exitX=0.5;exitY=0;exitDx=0;exitDy=0;entryX=0.5;entryY=1;entryDx=0;entryDy=0;" parent="nuWsxtLAnOdjGiexu5wx-46" source="F0SvgqK3PkyoFHp2l92A-34" target="F0SvgqK3PkyoFHp2l92A-33" edge="1">
                    <mxGeometry relative="1" as="geometry"/>
                </mxCell>
                <mxCell id="jq3iloUvg6TluwMbq8WB-13" style="edgeStyle=orthogonalEdgeStyle;rounded=0;orthogonalLoop=1;jettySize=auto;html=1;exitX=1;exitY=0.5;exitDx=0;exitDy=0;entryX=0;entryY=0.5;entryDx=0;entryDy=0;" parent="nuWsxtLAnOdjGiexu5wx-46" source="jq3iloUvg6TluwMbq8WB-1" target="jq3iloUvg6TluwMbq8WB-7" edge="1">
                    <mxGeometry relative="1" as="geometry"/>
                </mxCell>
                <mxCell id="jq3iloUvg6TluwMbq8WB-14" value="" style="group" parent="nuWsxtLAnOdjGiexu5wx-46" vertex="1" connectable="0">
                    <mxGeometry x="75" y="570" width="193.04000000000002" height="100" as="geometry"/>
                </mxCell>
                <mxCell id="jq3iloUvg6TluwMbq8WB-12" value="" style="group" parent="jq3iloUvg6TluwMbq8WB-14" vertex="1" connectable="0">
                    <mxGeometry width="154.36" height="85" as="geometry"/>
                </mxCell>
                <mxCell id="F0SvgqK3PkyoFHp2l92A-34" value="Producer" style="rounded=1;whiteSpace=wrap;html=1;fontFamily=Times New Roman;fontSize=18;" parent="jq3iloUvg6TluwMbq8WB-12" vertex="1">
                    <mxGeometry y="25" width="120" height="60" as="geometry"/>
                </mxCell>
                <mxCell id="F0SvgqK3PkyoFHp2l92A-45" value="" style="shape=image;html=1;verticalLabelPosition=bottom;verticalAlign=top;imageAspect=0;image=https://1000logos.net/wp-content/uploads/2021/11/Docker-Logo-2013.png;clipPath=inset(0% 17.33% 31.07% 15.33%);aspect=fixed;" parent="jq3iloUvg6TluwMbq8WB-12" vertex="1">
                    <mxGeometry x="85" width="69.36" height="40" as="geometry"/>
                </mxCell>
                <mxCell id="jq3iloUvg6TluwMbq8WB-1" value="" style="shape=image;html=1;verticalLabelPosition=bottom;verticalAlign=top;imageAspect=0;image=https://curl.se/logo/curl-transparent.png;" parent="jq3iloUvg6TluwMbq8WB-14" vertex="1">
                    <mxGeometry x="85" y="70" width="108.04" height="30" as="geometry"/>
                </mxCell>
                <mxCell id="jq3iloUvg6TluwMbq8WB-15" value="" style="group" parent="nuWsxtLAnOdjGiexu5wx-46" vertex="1" connectable="0">
                    <mxGeometry x="380" y="296.88" width="178.03999999999996" height="153.12" as="geometry"/>
                </mxCell>
                <mxCell id="F0SvgqK3PkyoFHp2l92A-64" value="" style="group" parent="jq3iloUvg6TluwMbq8WB-15" vertex="1" connectable="0">
                    <mxGeometry width="149.36" height="133.13" as="geometry"/>
                </mxCell>
                <mxCell id="F0SvgqK3PkyoFHp2l92A-37" value="" style="shape=image;html=1;verticalLabelPosition=bottom;verticalAlign=top;imageAspect=0;image=https://flink.apache.org/img/logo/png/1000/flink_squirrel_1000.png;" parent="F0SvgqK3PkyoFHp2l92A-64" vertex="1">
                    <mxGeometry y="5.6299999999999955" width="130" height="127.5" as="geometry"/>
                </mxCell>
                <mxCell id="F0SvgqK3PkyoFHp2l92A-63" value="" style="shape=image;html=1;verticalLabelPosition=bottom;verticalAlign=top;imageAspect=0;image=https://1000logos.net/wp-content/uploads/2021/11/Docker-Logo-2013.png;clipPath=inset(0% 17.33% 31.07% 15.33%);aspect=fixed;" parent="F0SvgqK3PkyoFHp2l92A-64" vertex="1">
                    <mxGeometry x="80" width="69.36" height="40" as="geometry"/>
                </mxCell>
                <mxCell id="jq3iloUvg6TluwMbq8WB-6" value="" style="shape=image;html=1;verticalLabelPosition=bottom;verticalAlign=top;imageAspect=0;image=https://curl.se/logo/curl-transparent.png;" parent="jq3iloUvg6TluwMbq8WB-15" vertex="1">
                    <mxGeometry x="70" y="123.12" width="108.04" height="30" as="geometry"/>
                </mxCell>
                <mxCell id="F0SvgqK3PkyoFHp2l92A-58" style="edgeStyle=orthogonalEdgeStyle;rounded=0;orthogonalLoop=1;jettySize=auto;html=1;exitX=0.25;exitY=0;exitDx=0;exitDy=0;" parent="nuWsxtLAnOdjGiexu5wx-46" source="F0SvgqK3PkyoFHp2l92A-37" target="F0SvgqK3PkyoFHp2l92A-53" edge="1">
                    <mxGeometry relative="1" as="geometry"/>
                </mxCell>
                <mxCell id="F0SvgqK3PkyoFHp2l92A-59" style="edgeStyle=orthogonalEdgeStyle;rounded=0;orthogonalLoop=1;jettySize=auto;html=1;exitX=0.75;exitY=0;exitDx=0;exitDy=0;entryX=0.5;entryY=1;entryDx=0;entryDy=0;" parent="nuWsxtLAnOdjGiexu5wx-46" source="F0SvgqK3PkyoFHp2l92A-37" target="F0SvgqK3PkyoFHp2l92A-56" edge="1">
                    <mxGeometry relative="1" as="geometry"/>
                </mxCell>
                <mxCell id="F0SvgqK3PkyoFHp2l92A-43" style="rounded=0;orthogonalLoop=1;jettySize=auto;html=1;exitX=0;exitY=0.5;exitDx=0;exitDy=0;entryX=1;entryY=0.5;entryDx=0;entryDy=0;" parent="nuWsxtLAnOdjGiexu5wx-46" source="F0SvgqK3PkyoFHp2l92A-38" target="F0SvgqK3PkyoFHp2l92A-37" edge="1">
                    <mxGeometry relative="1" as="geometry"/>
                </mxCell>
                <mxCell id="F0SvgqK3PkyoFHp2l92A-41" style="rounded=0;orthogonalLoop=1;jettySize=auto;html=1;exitX=1;exitY=0.25;exitDx=0;exitDy=0;entryX=0;entryY=0.25;entryDx=0;entryDy=0;" parent="nuWsxtLAnOdjGiexu5wx-46" source="F0SvgqK3PkyoFHp2l92A-33" target="F0SvgqK3PkyoFHp2l92A-37" edge="1">
                    <mxGeometry relative="1" as="geometry"/>
                </mxCell>
                <mxCell id="F0SvgqK3PkyoFHp2l92A-42" style="rounded=0;orthogonalLoop=1;jettySize=auto;html=1;exitX=0;exitY=0.75;exitDx=0;exitDy=0;entryX=1;entryY=0.75;entryDx=0;entryDy=0;" parent="nuWsxtLAnOdjGiexu5wx-46" source="F0SvgqK3PkyoFHp2l92A-37" target="F0SvgqK3PkyoFHp2l92A-33" edge="1">
                    <mxGeometry relative="1" as="geometry"/>
                </mxCell>
                <mxCell id="REIs4Q37yxE99ICMSTkO-2" style="edgeStyle=orthogonalEdgeStyle;rounded=0;orthogonalLoop=1;jettySize=auto;html=1;exitX=0;exitY=0.5;exitDx=0;exitDy=0;entryX=1;entryY=0.5;entryDx=0;entryDy=0;" parent="nuWsxtLAnOdjGiexu5wx-46" source="REIs4Q37yxE99ICMSTkO-1" target="F0SvgqK3PkyoFHp2l92A-38" edge="1">
                    <mxGeometry relative="1" as="geometry"/>
                </mxCell>
                <mxCell id="nuWsxtLAnOdjGiexu5wx-42" value="" style="group" parent="nuWsxtLAnOdjGiexu5wx-46" vertex="1" connectable="0">
                    <mxGeometry x="920" y="290" width="159.3599999999999" height="149.357074829932" as="geometry"/>
                </mxCell>
                <mxCell id="REIs4Q37yxE99ICMSTkO-1" value="" style="shape=image;html=1;verticalLabelPosition=bottom;verticalAlign=top;imageAspect=0;image=https://upload.wikimedia.org/wikipedia/commons/thumb/a/a1/Grafana_logo.svg/1200px-Grafana_logo.svg.png;clipPath=inset(0% 10.88% 21.33% 10.88%);aspect=fixed;" parent="nuWsxtLAnOdjGiexu5wx-42" vertex="1">
                    <mxGeometry y="5.670000000000016" width="140.02808021221284" height="143.68707482993196" as="geometry"/>
                </mxCell>
                <mxCell id="nuWsxtLAnOdjGiexu5wx-41" value="" style="shape=image;html=1;verticalLabelPosition=bottom;verticalAlign=top;imageAspect=0;image=https://1000logos.net/wp-content/uploads/2021/11/Docker-Logo-2013.png;clipPath=inset(0% 17.33% 31.07% 15.33%);aspect=fixed;" parent="nuWsxtLAnOdjGiexu5wx-42" vertex="1">
                    <mxGeometry x="90" width="69.36" height="40" as="geometry"/>
                </mxCell>
                <mxCell id="nuWsxtLAnOdjGiexu5wx-44" value="" style="verticalLabelPosition=bottom;verticalAlign=top;html=1;shape=mxgraph.basic.rect;fillColor2=none;strokeWidth=3;size=20;indent=5;fillColor=none;" parent="nuWsxtLAnOdjGiexu5wx-46" vertex="1">
                    <mxGeometry width="1160" height="730" as="geometry"/>
                </mxCell>
                <mxCell id="nuWsxtLAnOdjGiexu5wx-45" value="" style="shape=image;html=1;verticalLabelPosition=bottom;verticalAlign=top;imageAspect=0;image=https://gitlab.developers.cam.ac.uk/uploads/-/system/project/avatar/4542/compose.png;" parent="nuWsxtLAnOdjGiexu5wx-46" vertex="1">
                    <mxGeometry x="1025.32" width="134.68" height="200" as="geometry"/>
                </mxCell>
                <mxCell id="jq3iloUvg6TluwMbq8WB-8" style="edgeStyle=orthogonalEdgeStyle;rounded=0;orthogonalLoop=1;jettySize=auto;html=1;exitX=0.5;exitY=1;exitDx=0;exitDy=0;entryX=0.5;entryY=0;entryDx=0;entryDy=0;" parent="nuWsxtLAnOdjGiexu5wx-46" source="jq3iloUvg6TluwMbq8WB-6" target="jq3iloUvg6TluwMbq8WB-7" edge="1">
                    <mxGeometry relative="1" as="geometry"/>
                </mxCell>
            </root>
        </mxGraphModel>
    </diagram>
</mxfile>